<?xml version="1.0" encoding="UTF-8" standalone="no"?>
<!-- Created with Inkscape (http://www.inkscape.org/) -->

<svg
   width="38.889309mm"
   height="10.13647mm"
   viewBox="0 0 38.889309 10.136469"
   version="1.1"
   id="svg5"
   xmlns="http://www.w3.org/2000/svg"
   xmlns:svg="http://www.w3.org/2000/svg">
  <defs
     id="defs2" />
  <g
     aria-label="OnlyFuns"
     id="text2897"
     style="font-weight:bold;font-size:8.46667px;line-height:19.8438px;font-family:'Dancing Script';-inkscape-font-specification:'Dancing Script Bold';letter-spacing:0px;word-spacing:0px;fill:#990000;stroke-width:0.264583">
    <path
       d="m 2.3631339,4.6322016 q 0,0.4318001 0.1016,0.7789336 0.1100667,0.3471335 0.3048001,0.6011336 0.2032001,0.2455334 0.4910669,0.3810001 0.2878668,0.1354668 0.6604002,0.1354668 0.3640669,0 0.6519336,-0.1354668 Q 4.8692682,6.2578022 5.0640016,6.0122688 5.2672017,5.7582687 5.3688017,5.4111352 5.4788684,5.0640017 5.4788684,4.6322016 q 0,-0.4318002 -0.1100667,-0.7789337 Q 5.2672017,3.4976678 5.0640016,3.2521344 4.8692682,2.9981343 4.5729347,2.8626675 4.285068,2.7272008 3.9210011,2.7272008 q -0.3725334,0 -0.6604002,0.1439334 Q 2.9727341,3.0066009 2.769534,3.260601 2.5748006,3.5061345 2.4647339,3.8617346 q -0.1016,0.3471335 -0.1016,0.770467 z m 4.4788684,0 q 0,0.7535336 -0.2286001,1.3292672 Q 6.3932688,6.5287357 6.003802,6.9182025 5.6143351,7.2992026 5.0724683,7.493936 4.5390681,7.6886695 3.9210011,7.6886695 3.3198676,7.6886695 2.7864674,7.493936 2.2530671,7.2992026 1.8551336,6.9182025 1.4572002,6.5287357 1.2286001,5.9614688 0.99999998,5.3857352 0.99999998,4.6322016 q 0,-0.7535337 0.23706672,-1.3208006 Q 1.4741335,2.7356675 1.872067,2.3462007 2.2784672,1.9567338 2.8034007,1.7620004 3.3368009,1.567267 3.9210011,1.567267 q 0.6011336,0 1.1345338,0.1947334 0.5334002,0.1947334 0.9313337,0.5842003 0.3979335,0.3894668 0.6265336,0.9652003 0.2286001,0.5672669 0.2286001,1.3208006 z"
       style="font-family:Ubuntu;-inkscape-font-specification:'Ubuntu Bold'"
       id="path20618" />
    <path
       d="m 7.8580107,3.2690677 q 0.3217334,-0.093133 0.8297337,-0.1693334 0.5080002,-0.084667 1.0668004,-0.084667 0.5672672,0 0.9398002,0.1524001 0.381,0.1439333 0.601134,0.4148668 0.220133,0.2709334 0.313267,0.6434669 0.09313,0.3725335 0.09313,0.8297337 v 2.514601 h -1.261534 v -2.362201 q 0,-0.6096002 -0.160867,-0.8636003 -0.160866,-0.2540001 -0.6011333,-0.2540001 -0.1354667,0 -0.2878667,0.016933 -0.1524001,0.00847 -0.2709335,0.0254 V 7.5701361 H 7.8580107 Z"
       style="font-family:Ubuntu;-inkscape-font-specification:'Ubuntu Bold'"
       id="path20620" />
    <path
       d="M 14.622886,7.6548028 Q 14.072553,7.6463361 13.725419,7.5362694 13.386753,7.4262027 13.183553,7.2314693 12.988819,7.0282692 12.912619,6.7488691 12.844886,6.4610023 12.844886,6.1054022 V 1.2032002 L 14.10642,1.0000001 v 4.851402 q 0,0.1693334 0.0254,0.3048001 0.0254,0.1354667 0.09313,0.2286001 0.0762,0.093133 0.211667,0.1524 0.135466,0.059267 0.364067,0.0762 z"
       style="font-family:Ubuntu;-inkscape-font-specification:'Ubuntu Bold'"
       id="path20622" />
    <path
       d="m 19.381157,3.1166676 q -0.381,1.2869339 -0.795867,2.413001 -0.414867,1.1260671 -0.905934,2.1844009 -0.1778,0.3810001 -0.3556,0.6434669 -0.1778,0.2709334 -0.389467,0.4402668 -0.211666,0.1778001 -0.4826,0.2540001 -0.262467,0.084667 -0.618067,0.084667 -0.296333,0 -0.550333,-0.059267 -0.245534,-0.0508 -0.4064,-0.1185333 l 0.220133,-1.0075338 q 0.194733,0.067733 0.347134,0.093133 0.1524,0.0254 0.321733,0.0254 0.338667,0 0.516467,-0.1862667 0.186267,-0.1778001 0.313267,-0.4995336 -0.431801,-0.846667 -0.863601,-1.8965341 -0.4318,-1.0583337 -0.8128,-2.3706676 h 1.337734 q 0.08467,0.3302002 0.194733,0.719667 0.118534,0.3810001 0.245534,0.7789336 0.127,0.3894668 0.254,0.7620003 0.135466,0.3725335 0.254,0.6773336 0.110067,-0.3048001 0.2286,-0.6773336 0.118533,-0.3725335 0.2286,-0.7620003 0.118533,-0.3979335 0.220133,-0.7789336 0.110067,-0.3894668 0.194734,-0.719667 z"
       style="font-family:Ubuntu;-inkscape-font-specification:'Ubuntu Bold'"
       id="path20624" />
    <path
       d="M 20.143164,7.5701361 V 1.7027337 h 3.928535 v 1.1091338 h -2.607734 v 1.2276672 h 2.319867 v 1.1091337 h -2.319867 v 2.4214677 z"
       style="font-family:Ubuntu;-inkscape-font-specification:'Ubuntu Bold'"
       id="path20626" />
    <path
       d="m 28.550559,7.417736 q -0.321733,0.093133 -0.829734,0.1693334 -0.508,0.084667 -1.0668,0.084667 -0.567267,0 -0.948267,-0.1524 Q 25.333225,7.366936 25.113091,7.0960025 24.892958,6.8166024 24.799824,6.4356023 24.706691,6.0546021 24.706691,5.597402 V 3.1166676 h 1.261534 v 2.3283343 q 0,0.6096002 0.160867,0.8805337 0.160866,0.2709334 0.601133,0.2709334 0.135467,0 0.287867,-0.00847 0.1524,-0.016933 0.270933,-0.033867 V 3.1166676 h 1.261534 z"
       style="font-family:Ubuntu;-inkscape-font-specification:'Ubuntu Bold'"
       id="path20628" />
    <path
       d="m 29.7359,3.2690677 q 0.321733,-0.093133 0.829734,-0.1693334 0.508,-0.084667 1.0668,-0.084667 0.567267,0 0.9398,0.1524001 0.381,0.1439333 0.601134,0.4148668 0.220133,0.2709334 0.313267,0.6434669 0.09313,0.3725335 0.09313,0.8297337 v 2.514601 h -1.261534 v -2.362201 q 0,-0.6096002 -0.160867,-0.8636003 -0.160866,-0.2540001 -0.601133,-0.2540001 -0.135467,0 -0.287867,0.016933 -0.1524,0.00847 -0.270933,0.0254 V 7.5701361 H 29.7359 Z"
       style="font-family:Ubuntu;-inkscape-font-specification:'Ubuntu Bold'"
       id="path20630" />
    <path
       d="m 36.001241,6.6642024 q 0.347133,0 0.491067,-0.067733 0.143933,-0.067733 0.143933,-0.2624668 0,-0.1524 -0.186267,-0.2624667 Q 36.263707,5.9530021 35.882707,5.8090687 35.586374,5.699002 35.34084,5.5804686 35.103774,5.4619352 34.93444,5.3010685 34.765107,5.1317351 34.671973,4.903135 34.57884,4.6745349 34.57884,4.3528015 q 0,-0.6265336 0.465667,-0.9906004 0.465667,-0.3640668 1.278467,-0.3640668 0.4064,0 0.778934,0.0762 0.372533,0.067733 0.592667,0.1524 l -0.220134,0.9821338 q -0.220133,-0.0762 -0.4826,-0.1354668 -0.254,-0.059267 -0.575734,-0.059267 -0.592666,0 -0.592666,0.3302001 0,0.0762 0.0254,0.1354667 0.0254,0.059267 0.1016,0.1185334 0.0762,0.0508 0.2032,0.1185334 0.135466,0.059267 0.338667,0.1354667 0.414866,0.1524 0.6858,0.3048001 0.270933,0.1439334 0.423333,0.3217335 0.160867,0.1693334 0.220134,0.3810001 0.06773,0.2116668 0.06773,0.4910669 0,0.6604002 -0.499533,0.999067 -0.491067,0.3386669 -1.397001,0.3386669 -0.592667,0 -0.9906,-0.1016001 -0.389467,-0.1016 -0.541867,-0.1693334 l 0.211666,-1.0244671 q 0.321734,0.1270001 0.660401,0.2032001 0.338667,0.067733 0.668867,0.067733 z"
       style="font-family:Ubuntu;-inkscape-font-specification:'Ubuntu Bold'"
       id="path20632" />
  </g>
</svg>
