<?xml version="1.0" encoding="UTF-8" standalone="no"?>
<!-- Created with Inkscape (http://www.inkscape.org/) -->

<svg
   width="67.125595mm"
   height="10.60214mm"
   viewBox="0 0 67.125595 10.60214"
   version="1.1"
   id="svg5"
   xmlns="http://www.w3.org/2000/svg"
   xmlns:svg="http://www.w3.org/2000/svg">
  <defs
     id="defs2" />
  <g
     id="layer1"
     transform="translate(-68.157027,-114.68323)">
    <g
       aria-label="only.miraidai.fun"
       id="text29141"
       style="font-weight:bold;font-size:8.46667px;line-height:19.8438px;font-family:'Jost*';-inkscape-font-specification:'Jost* Bold';letter-spacing:0px;word-spacing:0px;stroke-width:0.264583">
      <path
         d="m 69.157027,120.47536 c 0,1.22767 0.948267,2.03201 2.218267,2.03201 1.270001,0 2.226734,-0.80434 2.226734,-2.03201 0,-1.22766 -0.956733,-2.032 -2.226734,-2.032 -1.27,0 -2.218267,0.80434 -2.218267,2.032 z m 1.3208,0 c 0,-0.6096 0.397934,-0.98213 0.897467,-0.98213 0.499534,0 0.9144,0.37253 0.9144,0.98213 0,0.60961 -0.414866,0.97367 -0.9144,0.97367 -0.499533,0 -0.897467,-0.36406 -0.897467,-0.97367 z"
         style="fill:#990000"
         id="path41697" />
      <path
         d="m 76.904036,120.05203 v 2.37067 h 1.329267 v -2.50614 c 0,-0.95673 -0.423334,-1.4732 -1.388534,-1.4732 -0.575734,0 -0.9652,0.26247 -1.185334,0.66887 v -0.5842 h -1.278467 v 3.89467 h 1.278467 v -2.37067 c 0,-0.4572 0.262467,-0.71967 0.668867,-0.71967 0.423334,0 0.575734,0.26247 0.575734,0.71967 z"
         style="fill:#990000"
         id="path41699" />
      <path
         d="m 79.240832,115.8187 v 6.604 h 1.278467 v -6.604 z"
         style="fill:#990000"
         id="path41701" />
      <path
         d="m 85.506171,118.52803 h -1.3208 l -0.914401,2.29447 -0.922867,-2.29447 h -1.405467 l 1.684867,3.57294 -0.948267,2.1844 h 1.286934 z"
         style="fill:#990000"
         id="path41703" />
      <path
         d="m 85.489247,121.84697 c 0,0.42333 0.338667,0.77893 0.795867,0.77893 0.4572,0 0.7874,-0.3556 0.7874,-0.77893 0,-0.42334 -0.3302,-0.77894 -0.7874,-0.77894 -0.4572,0 -0.795867,0.3556 -0.795867,0.77894 z"
         style="fill:#990000"
         id="path41705" />
      <path
         d="m 90.442242,120.05203 v 2.37067 h 1.278467 v -2.37067 c 0,-0.4572 0.220134,-0.71967 0.575734,-0.71967 0.372533,0 0.499533,0.26247 0.499533,0.71967 v 2.37067 h 1.278467 v -2.50614 c 0,-0.95673 -0.313266,-1.4732 -1.227667,-1.4732 -0.524933,0 -0.9652,0.24554 -1.2446,0.62654 -0.1524,-0.42334 -0.499534,-0.62654 -1.109134,-0.62654 -0.541867,0 -0.9144,0.254 -1.126067,0.6604 v -0.57573 h -1.227667 v 3.89467 h 1.227667 v -2.37067 c 0,-0.4572 0.211667,-0.71967 0.567267,-0.71967 0.372533,0 0.508,0.26247 0.508,0.71967 z"
         style="fill:#990000"
         id="path41707" />
      <path
         d="m 94.997308,117.07176 c 0,0.4064 0.338667,0.6858 0.745067,0.6858 0.4064,0 0.745067,-0.2794 0.745067,-0.6858 0,-0.4064 -0.338667,-0.69426 -0.745067,-0.69426 -0.4064,0 -0.745067,0.28786 -0.745067,0.69426 z m 0.118533,1.45627 v 3.89467 h 1.244601 v -3.89467 z"
         style="fill:#990000"
         id="path41709" />
      <path
         d="m 99.780973,119.84883 0.558797,-1.10067 c -0.13546,-0.2032 -0.414863,-0.32173 -0.694263,-0.32173 -0.372534,0 -0.736601,0.2286 -0.982134,0.59267 v -0.49107 h -1.253067 v 3.89467 h 1.253067 v -1.92194 c 0,-0.5588 0.254,-0.87206 0.626534,-0.87206 0.220133,0 0.3556,0.0847 0.491066,0.22013 z"
         style="fill:#990000"
         id="path41711" />
      <path
         d="m 101.36424,119.72183 c 0.18627,-0.11007 0.6858,-0.3302 1.2446,-0.3302 0.42333,0 0.6858,0.21167 0.6858,0.54187 v 0.3556 c -0.254,-0.127 -0.635,-0.2286 -1.03293,-0.2286 -1.02447,0 -1.68487,0.49106 -1.68487,1.26153 0,0.77047 0.5842,1.18534 1.41393,1.18534 0.5842,0 1.07527,-0.2286 1.30387,-0.635 v 0.55033 h 1.22767 v -2.7432 c 0,-0.80434 -0.762,-1.26154 -1.81187,-1.26154 -0.70273,0 -1.33773,0.23707 -1.778,0.44874 z m 0.49953,1.53247 c 0,-0.3048 0.254,-0.508 0.69427,-0.508 0.29633,0 0.52493,0.0508 0.7366,0.1524 -0.0254,0.5842 -0.41487,0.77893 -0.87207,0.77893 -0.3048,0 -0.5588,-0.13546 -0.5588,-0.42333 z"
         style="fill:#990000"
         id="path41713" />
      <path
         d="m 105.39437,117.07176 c 0,0.4064 0.33867,0.6858 0.74507,0.6858 0.4064,0 0.74506,-0.2794 0.74506,-0.6858 0,-0.4064 -0.33866,-0.69426 -0.74506,-0.69426 -0.4064,0 -0.74507,0.28786 -0.74507,0.69426 z m 0.11853,1.45627 v 3.89467 h 1.2446 v -3.89467 z"
         style="fill:#990000"
         id="path41715" />
      <path
         d="m 107.5703,120.47536 c 0,1.31234 0.89747,2.03201 1.84573,2.03201 0.5588,0 1.03294,-0.254 1.33774,-0.7112 v 0.62653 h 1.27846 v -6.604 h -1.27846 v 3.33586 c -0.3048,-0.4572 -0.77894,-0.7112 -1.33774,-0.7112 -0.94826,0 -1.84573,0.71967 -1.84573,2.032 z m 1.33773,0 c 0,-0.6096 0.42334,-1.00753 0.93134,-1.00753 0.44026,0 0.9144,0.37253 0.9144,1.00753 0,0.63501 -0.47414,1.00754 -0.9144,1.00754 -0.508,0 -0.93134,-0.39793 -0.93134,-1.00754 z"
         style="fill:#990000"
         id="path41717" />
      <path
         d="m 113.50543,119.72183 c 0.18626,-0.11007 0.6858,-0.3302 1.2446,-0.3302 0.42333,0 0.6858,0.21167 0.6858,0.54187 v 0.3556 c -0.254,-0.127 -0.635,-0.2286 -1.03293,-0.2286 -1.02447,0 -1.68487,0.49106 -1.68487,1.26153 0,0.77047 0.5842,1.18534 1.41393,1.18534 0.5842,0 1.07527,-0.2286 1.30387,-0.635 v 0.55033 h 1.22767 v -2.7432 c 0,-0.80434 -0.762,-1.26154 -1.81187,-1.26154 -0.70273,0 -1.33774,0.23707 -1.778,0.44874 z m 0.49953,1.53247 c 0,-0.3048 0.254,-0.508 0.69427,-0.508 0.29633,0 0.52493,0.0508 0.7366,0.1524 -0.0254,0.5842 -0.41487,0.77893 -0.87207,0.77893 -0.3048,0 -0.5588,-0.13546 -0.5588,-0.42333 z"
         style="fill:#990000"
         id="path41719" />
      <path
         d="m 117.53555,117.07176 c 0,0.4064 0.33867,0.6858 0.74507,0.6858 0.4064,0 0.74507,-0.2794 0.74507,-0.6858 0,-0.4064 -0.33867,-0.69426 -0.74507,-0.69426 -0.4064,0 -0.74507,0.28786 -0.74507,0.69426 z m 0.11854,1.45627 v 3.89467 h 1.2446 v -3.89467 z"
         style="fill:#990000"
         id="path41721" />
      <path
         d="m 120.01629,121.84697 c 0,0.42333 0.33866,0.77893 0.79586,0.77893 0.4572,0 0.7874,-0.3556 0.7874,-0.77893 0,-0.42334 -0.3302,-0.77894 -0.7874,-0.77894 -0.4572,0 -0.79586,0.3556 -0.79586,0.77894 z"
         style="fill:#990000"
         id="path41723" />
      <path
         d="m 122.31075,118.52803 v 1.05833 h 0.49107 v 2.83634 h 1.22766 v -2.83634 h 0.9398 v -1.05833 h -0.9398 v -1.1176 c 0,-0.4064 0.1524,-0.57573 0.4064,-0.57573 0.1524,0 0.27094,0.0593 0.38947,0.21166 l 0.51647,-0.9398 c -0.1778,-0.16933 -0.49954,-0.42333 -1.07527,-0.42333 -0.97367,0 -1.46473,0.5334 -1.46473,1.40547 v 1.43933 z"
         style="fill:#990000"
         id="path41725" />
      <path
         d="m 126.89969,120.8987 v -2.37067 h -1.32927 v 2.50614 c 0,0.95673 0.42333,1.4732 1.38853,1.4732 0.57574,0 0.9652,-0.26247 1.18534,-0.66887 v 0.5842 h 1.27846 v -3.89467 h -1.27846 v 2.37067 c 0,0.4572 -0.27094,0.71967 -0.67734,0.71967 -0.42333,0 -0.56726,-0.26247 -0.56726,-0.71967 z"
         style="fill:#990000"
         id="path41727" />
      <path
         d="m 132.95335,120.05203 v 2.37067 h 1.32927 v -2.50614 c 0,-0.95673 -0.42334,-1.4732 -1.38854,-1.4732 -0.57573,0 -0.9652,0.26247 -1.18533,0.66887 v -0.5842 h -1.27847 v 3.89467 h 1.27847 v -2.37067 c 0,-0.4572 0.26247,-0.71967 0.66887,-0.71967 0.42333,0 0.57573,0.26247 0.57573,0.71967 z"
         style="fill:#990000"
         id="path41729" />
    </g>
  </g>
</svg>
